<?xml version="1.0" encoding="UTF-8"?>
<svg version="1.1" xmlns="http://www.w3.org/2000/svg" width="1024" height="1024">
<path d="M0 0 C337.92 0 675.84 0 1024 0 C1024 337.92 1024 675.84 1024 1024 C686.08 1024 348.16 1024 0 1024 C0 686.08 0 348.16 0 0 Z " fill="#EDEEF1" transform="translate(0,0)"/>
<path d="M0 0 C96.03 0 192.06 0 291 0 C291 60.06 291 120.12 291 182 C269.91867187 182.04898438 248.83734375 182.09796875 227.1171875 182.1484375 C213.79166263 182.18380717 200.46614177 182.21966392 187.140625 182.2578125 C180.14257855 182.2778209 173.14453176 182.29770541 166.14648438 182.31738281 C165.26937892 182.31985425 164.39227346 182.32232569 163.48858905 182.32487202 C149.32371385 182.364604 135.15883067 182.39734059 120.99393223 182.42749982 C106.45965974 182.45860095 91.92542118 182.49720463 77.39118683 182.54279006 C68.42097173 182.57068742 59.45078148 182.59271505 50.48053463 182.60726251 C44.33141479 182.61779509 38.18234305 182.63560744 32.03325944 182.65916704 C28.48423552 182.67254908 24.93527907 182.68269961 21.38622856 182.68421364 C17.53906672 182.68593869 13.6920597 182.70298189 9.84494019 182.7215271 C8.72236938 182.71959237 7.59979858 182.71765763 6.44321048 182.71566427 C1.18722837 182.75366466 -3.05984952 183.01351119 -8 185 C-15.46932838 185.72283823 -20.34108024 183.94947032 -26.17578125 179.24609375 C-27.54704902 178.04529437 -28.90289612 176.82651841 -30.23828125 175.5859375 C-33.17032338 172.94644946 -35.31762257 171.75564368 -39.1875 171.375 C-41.0746875 171.189375 -41.0746875 171.189375 -43 171 C-43 169.68 -43 168.36 -43 167 C-40.03 167 -37.06 167 -34 167 C-34 167.66 -34 168.32 -34 169 C-32.92105469 169.36931641 -32.92105469 169.36931641 -31.8203125 169.74609375 C-28.68755766 171.13891134 -26.49234878 172.85736364 -23.875 175.0625 C-19.24213447 178.95607848 -16.43959937 180.07969108 -10.328125 180.328125 C-7.10329857 179.97721626 -7.10329857 179.97721626 -1 177 C-0.67 118.59 -0.34 60.18 0 0 Z " fill="#826FFA" transform="translate(528,422)"/>
<path d="M0 0 C53.79 0 107.58 0 163 0 C163 39.27 163 78.54 163 119 C109.21 119 55.42 119 0 119 C0 98.87 0 78.74 0 58 C-0.66 58 -1.32 58 -2 58 C-1.75 56.125 -1.75 56.125 -1 54 C1.0625 52.75 1.0625 52.75 3 52 C3 51.34 3 50.68 3 50 C-19.77 49.67 -42.54 49.34 -66 49 C-66 48.01 -66 47.02 -66 46 C-42.9 46 -19.8 46 4 46 C4 45.34 4 44.68 4 44 C3.01 44 2.02 44 1 44 C0.505 42.02 0.505 42.02 0 40 C-0.66 40 -1.32 40 -2 40 C-2 39.01 -2 38.02 -2 37 C-1.34 37 -0.68 37 0 37 C0 24.79 0 12.58 0 0 Z " fill="#6A85E0" transform="translate(329,422)"/>
<path d="M0 0 C0.69773529 -0.00839905 1.39547058 -0.0167981 2.11434937 -0.02545166 C15.56240403 -0.14298195 29.63184664 1.78460307 41.625 8.25 C42.60509033 8.7615564 42.60509033 8.7615564 43.60498047 9.28344727 C53.95007062 14.91333271 62.280033 23.02951731 66.5625 34.125 C66.76875 34.929375 66.975 35.73375 67.1875 36.5625 C62.65437731 35.99901351 59.70437584 34.17542136 55.875 31.75 C30.09486088 16.66838297 -5.90569667 22.6249252 -33.46728516 29.47021484 C-38.03880707 30.66882676 -42.59656651 31.89707755 -47.12841797 33.23852539 C-63.59983958 38.05676066 -63.59983958 38.05676066 -69.5 35.3125 C-71.67804724 30.74897245 -71.58212233 26.51098077 -70.8125 21.5625 C-69.44213537 17.72168565 -67.7531911 14.1458475 -65.8125 10.5625 C-65.1525 10.5625 -64.4925 10.5625 -63.8125 10.5625 C-63.4825 9.5725 -63.1525 8.5825 -62.8125 7.5625 C-58.41787294 5.67938507 -53.84924009 4.94993405 -49.14453125 4.2734375 C-48.03421036 4.1106002 -48.03421036 4.1106002 -46.90145874 3.94447327 C-31.27663397 1.70365196 -15.79627053 0.05645667 0 0 Z " fill="#364AA0" transform="translate(623.8125,381.4375)"/>
<path d="M0 0 C0.71986084 0.00027191 1.43972168 0.00054382 2.18139648 0.00082397 C11.68902959 0.01737257 20.93165037 0.29259466 30.33496094 1.86230469 C33.07343198 2.27363119 35.81804375 2.57737882 38.5703125 2.8828125 C39.65119141 3.00551514 40.73207031 3.12821777 41.84570312 3.25463867 C43.9816761 3.49587386 46.11838149 3.73073657 48.25585938 3.95825195 C60.14291665 5.36011974 60.14291665 5.36011974 64.14453125 10.16015625 C64.52996094 10.84980469 64.91539062 11.53945313 65.3125 12.25 C65.71082031 12.94222656 66.10914063 13.63445312 66.51953125 14.34765625 C68.52966689 18.11966376 68.72692447 20.72967579 68.8125 25.0625 C68.86857422 26.91488281 68.86857422 26.91488281 68.92578125 28.8046875 C68.5 32.1875 68.5 32.1875 66.98046875 34.6328125 C63.45054685 36.84526749 60.49016384 36.76771953 56.5 36.1875 C52.77218521 35.30853121 49.14723543 34.16455797 45.5 33 C36.89938573 30.36920812 28.31164283 28.11968235 19.5 26.3125 C18.51644531 26.10987549 17.53289062 25.90725098 16.51953125 25.69848633 C6.50884763 23.69893857 -3.02445889 23.00103137 -13.22607422 23.00219727 C-15.36315889 23.00001211 -17.49972505 22.9818086 -19.63671875 22.96289062 C-27.1215524 22.93165757 -34.22665151 23.23519852 -41.5 25.1875 C-42.5725 25.47109375 -43.645 25.7546875 -44.75 26.046875 C-50.81755047 28.01193396 -56.01062719 30.40699623 -61.34375 33.91796875 C-63.42938789 35.14592584 -65.13603986 35.74157116 -67.5 36.1875 C-66.94021635 32.31680083 -65.8596506 29.82132859 -63.625 26.625 C-63.11195313 25.88121094 -62.59890625 25.13742187 -62.0703125 24.37109375 C-61.55210937 23.65050781 -61.03390625 22.92992187 -60.5 22.1875 C-59.98179687 21.43597656 -59.46359375 20.68445313 -58.9296875 19.91015625 C-58.45789063 19.34167969 -57.98609375 18.77320313 -57.5 18.1875 C-56.84 18.1875 -56.18 18.1875 -55.5 18.1875 C-55.273125 17.60871094 -55.04625 17.02992188 -54.8125 16.43359375 C-49.88953357 8.00887442 -38.81653121 5.00757134 -29.99609375 2.64672852 C-20.01748902 0.15540058 -10.23044151 -0.01446711 0 0 Z " fill="#354AA0" transform="translate(407.5,381.8125)"/>
<path d="M0 0 C6.45160589 1.97811968 11.99669746 3.22183938 18.765625 2.8359375 C21.36931912 2.78936736 23.63854825 3.20231976 26.16796875 3.79296875 C25.83796875 4.78296875 25.50796875 5.77296875 25.16796875 6.79296875 C-23.34203125 6.79296875 -71.85203125 6.79296875 -121.83203125 6.79296875 C-121.17203125 5.14296875 -120.51203125 3.49296875 -119.83203125 1.79296875 C-118.84203125 2.12296875 -117.85203125 2.45296875 -116.83203125 2.79296875 C-116.50203125 1.14296875 -116.17203125 -0.50703125 -115.83203125 -2.20703125 C-114.84203125 -2.20703125 -113.85203125 -2.20703125 -112.83203125 -2.20703125 C-113.16203125 -0.22703125 -113.49203125 1.75296875 -113.83203125 3.79296875 C-112.47754427 3.04354738 -111.12346203 2.29339449 -109.76953125 1.54296875 C-108.939375 1.08535156 -108.10921875 0.62773437 -107.25390625 0.15625 C-105.31360566 -0.93595146 -103.4096704 -2.09265215 -101.51953125 -3.26953125 C-72.75549801 -19.72523399 -29.44667833 -9.28251898 0 0 Z " fill="#F7FAFB" transform="translate(453.83203125,414.20703125)"/>
<path d="M0 0 C0.7022168 0.00154083 1.40443359 0.00308167 2.12792969 0.00466919 C18.54722523 0.09038098 30.74291113 2.82580203 44.89453125 11.44921875 C47.98305488 13.44665576 47.98305488 13.44665576 51.125 14.375 C51.455 12.725 51.785 11.075 52.125 9.375 C54.105 9.87 54.105 9.87 56.125 10.375 C56.125 11.035 56.125 11.695 56.125 12.375 C55.465 13.035 54.805 13.695 54.125 14.375 C54.125 15.365 54.125 16.355 54.125 17.375 C11.225 17.375 -31.675 17.375 -75.875 17.375 C-71.875 15.375 -71.875 15.375 -67.875 13.375 C-67.875 12.715 -67.875 12.055 -67.875 11.375 C-59.3020693 8.67331938 -50.66671011 6.5930897 -41.875 4.75 C-40.90369141 4.54415283 -39.93238281 4.33830566 -38.93164062 4.1262207 C-25.94028575 1.45503023 -13.2770535 -0.04432777 0 0 Z " fill="#F8F9FA" transform="translate(639.875,403.625)"/>
<path d="M0 0 C2.76285169 2.76285169 2.35093106 4.54970829 2.52734375 8.421875 C2.59606432 9.7604232 2.66491745 11.09896459 2.73388672 12.4375 C2.78316315 13.49324219 2.78316315 13.49324219 2.83343506 14.5703125 C4.18847356 42.95220977 8.62429713 67.92297644 19.90185547 94.09277344 C26.54749631 109.53648939 28.85474565 126.22165952 28 143 C28.97520096 142.83890747 29.95040192 142.67781494 30.95515442 142.51184082 C35.2157303 141.90662921 39.41974151 141.83354213 43.7175293 141.81054688 C44.56068695 141.80225357 45.4038446 141.79396027 46.27255249 141.78541565 C48.09164816 141.76810394 49.91076502 141.75291348 51.72989464 141.73963928 C54.60903402 141.71849431 57.48806654 141.69148456 60.36714172 141.66296387 C67.51252869 141.59336963 74.65799203 141.53370289 81.8034668 141.47393799 C87.85343409 141.42298314 93.903342 141.36816909 99.95322609 141.30812073 C102.78941199 141.28157577 105.62560362 141.26074917 108.46183777 141.2401123 C110.19811268 141.22351001 111.93438505 141.20663823 113.6706543 141.18945312 C114.45879013 141.18526871 115.24692596 141.18108429 116.0589447 141.17677307 C120.13483362 141.15891448 120.13483362 141.15891448 124.10854816 140.36553192 C124.73272727 140.24490639 125.35690638 140.12428085 126 140 C126.66 140.66 127.32 141.32 128 142 C127.96118164 144.21948242 127.96118164 144.21948242 127.59765625 147.16796875 C127.02941903 153.30978459 126.97462777 159.32362578 127.12109375 165.48828125 C127.14427673 166.47963577 127.16745972 167.4709903 127.19134521 168.49238586 C127.24358909 170.63337675 127.297318 172.7743318 127.35235596 174.91525269 C127.96984201 199.55294622 128.11908269 224.18559083 128.12382889 248.82979965 C128.12498159 251.39651727 128.1283128 253.96322309 128.1322937 256.52993774 C128.15523045 273.05416248 128.11218607 289.57665436 127.67306137 306.09602547 C127.63618064 307.49975311 127.60219796 308.90356026 127.57129288 310.30743217 C127.52736921 312.22612313 127.46889996 314.14446474 127.40966797 316.06274414 C127.37904266 317.14221817 127.34841736 318.2216922 127.31686401 319.33387756 C127 322 127 322 125 325 C123.50499882 322.00999765 123.87741247 319.30016599 123.87974548 315.96395874 C123.87888947 315.23306534 123.87803345 314.50217194 123.87715149 313.74913025 C123.87548962 311.27983196 123.88103074 308.81060074 123.88647461 306.34130859 C123.88678078 304.54886184 123.88664774 302.75641497 123.88610935 300.96396828 C123.88588301 296.1511243 123.89169118 291.33830505 123.89871979 286.52546692 C123.90440236 282.01412882 123.90468223 277.50279682 123.90539551 272.99145508 C123.91064897 259.78596676 123.92461004 246.58048307 123.9375 233.375 C123.958125 203.88125 123.97875 174.3875 124 144 C27.97 144 -68.06 144 -167 144 C-167 143.67 -167 143.34 -167 143 C-103.31 143 -39.62 143 26 143 C23.55985004 119.81857542 18.35507906 101.16917017 8.8515625 80.2265625 C-2.22392908 55.54270552 -0.20561801 26.40135301 0 0 Z " fill="#DEDAFA" transform="translate(695,278)"/>
<path d="M0 0 C53.79 0 107.58 0 163 0 C163 39.27 163 78.54 163 119 C109.21 119 55.42 119 0 119 C0 98.87 0 78.74 0 58 C-0.66 58 -1.32 58 -2 58 C-1.75 56.125 -1.75 56.125 -1 54 C1.0625 52.75 1.0625 52.75 3 52 C3 51.34 3 50.68 3 50 C-19.77 49.67 -42.54 49.34 -66 49 C-66 48.01 -66 47.02 -66 46 C-42.9 46 -19.8 46 4 46 C4 45.34 4 44.68 4 44 C3.01 44 2.02 44 1 44 C0.505 42.02 0.505 42.02 0 40 C-0.66 40 -1.32 40 -2 40 C-2 39.01 -2 38.02 -2 37 C-1.34 37 -0.68 37 0 37 C0 24.79 0 12.58 0 0 Z M2 1 C2 13.21 2 25.42 2 38 C3.32 38.66 4.64 39.32 6 40 C6 40.66 6 41.32 6 42 C9.63323689 44.96235695 9.63323689 44.96235695 14 46 C14 46.99 14 47.98 14 49 C12.9171875 49.0928125 12.9171875 49.0928125 11.8125 49.1875 C8.1410973 50.24812745 6.52297062 52.19669931 4 55 C3.505 55.495 3.505 55.495 3 56 C2.67 76.13 2.34 96.26 2 117 C54.47 117 106.94 117 161 117 C162.18989216 114.62021568 162.12576483 113.17661325 162.12698364 110.52099609 C162.12980347 109.57875183 162.13262329 108.63650757 162.13552856 107.66571045 C162.13350433 106.62876038 162.1314801 105.5918103 162.12939453 104.5234375 C162.13114685 103.43395813 162.13289917 102.34447876 162.13470459 101.22198486 C162.13912023 97.60630723 162.13618611 93.99067817 162.1328125 90.375 C162.13348562 87.87158194 162.13445572 85.36816393 162.13571167 82.86474609 C162.13718825 77.61229961 162.13513016 72.35986585 162.13037109 67.10742188 C162.1249287 61.03054618 162.12669144 54.95370403 162.1321975 48.87682915 C162.13727779 43.03663625 162.13674577 37.19645614 162.13381577 31.35626221 C162.13314679 28.86826574 162.1339739 26.38026842 162.13629532 23.89227295 C162.13882355 20.42034611 162.13497877 16.94848446 162.12939453 13.4765625 C162.13243088 11.92113739 162.13243088 11.92113739 162.13552856 10.33428955 C162.13270874 9.39204529 162.12988892 8.44980103 162.12698364 7.47900391 C162.12660662 6.65751862 162.12622959 5.83603333 162.12584114 4.98965454 C162.12507238 2.92525802 162.12507238 2.92525802 161 1 C108.53 1 56.06 1 2 1 Z " fill="#788DC2" transform="translate(329,422)"/>
<path d="M0 0 C96.03 0 192.06 0 291 0 C291 60.06 291 120.12 291 182 C269.91867187 182.04898438 248.83734375 182.09796875 227.1171875 182.1484375 C213.79166263 182.18380717 200.46614177 182.21966392 187.140625 182.2578125 C180.14257855 182.2778209 173.14453176 182.29770541 166.14648438 182.31738281 C165.26937892 182.31985425 164.39227346 182.32232569 163.48858905 182.32487202 C149.32371385 182.364604 135.15883067 182.39734059 120.99393223 182.42749982 C106.45965974 182.45860095 91.92542118 182.49720463 77.39118683 182.54279006 C68.42097173 182.57068742 59.45078148 182.59271505 50.48053463 182.60726251 C44.33141479 182.61779509 38.18234305 182.63560744 32.03325944 182.65916704 C28.48423552 182.67254908 24.93527907 182.68269961 21.38622856 182.68421364 C17.53906672 182.68593869 13.6920597 182.70298189 9.84494019 182.7215271 C8.72236938 182.71959237 7.59979858 182.71765763 6.44321048 182.71566427 C1.18722837 182.75366466 -3.05984952 183.01351119 -8 185 C-15.46932838 185.72283823 -20.34108024 183.94947032 -26.17578125 179.24609375 C-27.54704902 178.04529437 -28.90289612 176.82651841 -30.23828125 175.5859375 C-33.17032338 172.94644946 -35.31762257 171.75564368 -39.1875 171.375 C-41.0746875 171.189375 -41.0746875 171.189375 -43 171 C-43 169.68 -43 168.36 -43 167 C-40.03 167 -37.06 167 -34 167 C-34 167.66 -34 168.32 -34 169 C-32.92105469 169.36931641 -32.92105469 169.36931641 -31.8203125 169.74609375 C-28.68755766 171.13891134 -26.49234878 172.85736364 -23.875 175.0625 C-19.24213447 178.95607848 -16.43959937 180.07969108 -10.328125 180.328125 C-7.10329857 179.97721626 -7.10329857 179.97721626 -1 177 C-0.67 118.59 -0.34 60.18 0 0 Z M1 1 C0.67 60.4 0.34 119.8 0 181 C95.7 181 191.4 181 290 181 C290.04125 151.856875 290.0825 122.71375 290.125 92.6875 C290.14320801 83.47416748 290.16141602 74.26083496 290.18017578 64.76831055 C290.18686327 56.53348616 290.18686327 56.53348616 290.19088745 48.29866028 C290.19275616 44.62126773 290.20027254 40.94393252 290.21115112 37.26655579 C290.22482812 32.58143701 290.22898997 27.89640209 290.22614455 23.21126521 C290.2267399 21.488325 290.23073006 19.76538199 290.23843026 18.04245889 C290.24832389 15.72165455 290.24600005 13.40117935 290.24050903 11.08036804 C290.24235262 9.77787456 290.24419621 8.47538107 290.24609566 7.13341808 C290.24352547 3.83678463 290.24352547 3.83678463 288 1 C285.83185251 0.54968081 285.83185251 0.54968081 283.27171898 0.63085651 C281.76614404 0.6218968 281.76614404 0.6218968 280.23015344 0.61275607 C278.56383872 0.62586386 278.56383872 0.62586386 276.86386108 0.63923645 C275.69017271 0.63667318 274.51648433 0.6341099 273.30722964 0.63146895 C270.03936491 0.62736885 266.77185358 0.63679376 263.5040307 0.65180314 C259.98392377 0.66472005 256.46383428 0.66037713 252.94371033 0.65809631 C246.84153685 0.65652082 240.73945936 0.66595879 234.63731003 0.68280983 C225.8145677 0.70715795 216.99187193 0.7150008 208.16909964 0.7187738 C193.85587082 0.72534488 179.5426932 0.74532381 165.22949219 0.77368164 C151.32291924 0.80120525 137.41636025 0.82241274 123.50976562 0.83520508 C122.21153457 0.83641107 122.21153457 0.83641107 120.88707662 0.83764142 C114.11871839 0.84387943 107.35035986 0.84975029 100.58200121 0.85550511 C67.38795382 0.88382252 34.19403454 0.94417348 1 1 Z " fill="#877BD1" transform="translate(528,422)"/>
<path d="M0 0 C2 2 2 2 2.24609566 5.01037025 C2.24425207 6.31378553 2.24240849 7.61720081 2.24050903 8.96011353 C2.24307709 10.04423271 2.24307709 10.04423271 2.24569702 11.1502533 C2.24902072 13.5919668 2.237939 16.03340901 2.22705078 18.47509766 C2.22643844 20.24751972 2.22670453 22.01994228 2.2277813 23.79236412 C2.22823398 28.55137051 2.21661787 33.31027691 2.20256042 38.06925964 C2.19119508 42.53014451 2.19063553 46.99100469 2.18920898 51.4519043 C2.17870216 64.50961618 2.15078001 77.56730934 2.125 90.625 C2.08375 119.78875 2.0425 148.9525 2 179 C-93.7 179 -189.4 179 -288 179 C-288 178.67 -288 178.34 -288 178 C-192.96 178 -97.92 178 0 178 C-0.495 126.025 -0.495 126.025 -1 73 C-0.48686835 22.49318484 -0.48686835 22.49318484 0 0 Z " fill="#8575E6" transform="translate(816,424)"/>
<path d="M0 0 C9.27559529 1.9556978 17.47536072 2.43953247 26.6875 0 C39.35887747 -3.22127789 52.6394472 -1.7244501 65.44921875 -0.01171875 C71.79338873 0.8217221 78.17644312 1.14676832 84.5625 1.5 C84.5625 2.49 84.5625 3.48 84.5625 4.5 C77.20306759 6.95314414 69.3633383 5.57270501 61.9375 4 C49.0527524 1.33236968 37.14893655 1.94735398 24.34375 4.8203125 C15.06380204 6.48840232 5.78047288 6.22014931 -3.375 4 C-15.68447628 1.04572569 -27.74800032 2.10188023 -40.06884766 4.42553711 C-46.22858728 5.56534223 -52.17259665 5.83167135 -58.4375 5.5 C-58.7675 4.18 -59.0975 2.86 -59.4375 1.5 C-58.4019397 1.41697632 -58.4019397 1.41697632 -57.34545898 1.33227539 C-54.18845586 1.07790464 -51.03173062 0.8202296 -47.875 0.5625 C-46.78896484 0.47548828 -45.70292969 0.38847656 -44.58398438 0.29882812 C-40.28200384 -0.05422195 -36.02030105 -0.41295027 -31.75 -1.05078125 C-21.28220983 -2.47035185 -10.3244691 -2.20367177 0 0 Z " fill="#727BA7" transform="translate(502.4375,669.5)"/>
<path d="M0 0 C2.76285169 2.76285169 2.35093106 4.54970829 2.52734375 8.421875 C2.59606432 9.7604232 2.66491745 11.09896459 2.73388672 12.4375 C2.76673767 13.14132812 2.79958862 13.84515625 2.83343506 14.5703125 C4.15133085 42.17423892 8.39344681 66.42988795 19 92 C25.34598195 107.35862652 27.38687069 121.45053178 27 138 C26.67 138 26.34 138 26 138 C25.88108398 137.08226807 25.88108398 137.08226807 25.75976562 136.14599609 C23.22988963 117.37809005 18.22456801 100.58877373 10.0859375 83.4921875 C3.84923329 69.17917569 1.12823766 53.6162458 0.4375 38.125 C0.3950415 37.19478027 0.35258301 36.26456055 0.30883789 35.30615234 C-0.17302469 23.54172464 -0.09167944 11.77164003 0 0 Z " fill="#707A9E" transform="translate(695,278)"/>
<path d="M0 0 C0.33 0 0.66 0 1 0 C1.30274684 36.27838707 -1.92952463 67.60071027 -16.6875 101.125 C-21.72486116 113.11557116 -23.76225944 126.25165983 -26 139 C-26.33 139 -26.66 139 -27 139 C-27.53497929 121.70233644 -25.36457123 107.9193762 -18 92 C-16.28545155 88.01909441 -14.62679182 84.01751629 -13 80 C-12.6390625 79.10925781 -12.278125 78.21851563 -11.90625 77.30078125 C-4.06149664 56.94602347 -2.91309358 34.14467316 -1.4296875 12.59765625 C-1.12928772 8.35609594 -0.68053389 4.19662567 0 0 Z " fill="#707B9D" transform="translate(333,277)"/>
<path d="M0 0 C1 3 1 3 0.0625 5.1875 C-1.7900182 10.09122465 -1.39997779 14.97127977 0 20 C8.11403181 20.64739615 13.6861944 19.60975991 21.03515625 16.171875 C24.91948464 14.63656734 28.47901911 14.35550392 32.625 14.23828125 C35.20648006 13.97928407 36.71179674 13.16902266 39 12 C41.2982972 11.68532846 43.56320577 11.5624631 45.87890625 11.44140625 C48.09050135 11.22131362 48.09050135 11.22131362 49.16308594 9.49072266 C51.99831004 7.18983505 55.02422693 7.63058224 58.51171875 7.70703125 C59.23994339 7.71127609 59.96816803 7.71552094 60.71846008 7.71989441 C63.04185127 7.73667267 65.3643715 7.77432145 67.6875 7.8125 C69.26365934 7.82754803 70.83983229 7.84123623 72.41601562 7.85351562 C76.27767877 7.88657315 80.13869178 7.93834806 84 8 C84 7.67 84 7.34 84 7 C93.98498695 6.64620125 103.66603307 7.35320144 112.9765625 11.203125 C116.89045498 12.74450351 120.96165075 13.83318188 125 15 C125.66 13.68 126.32 12.36 127 11 C134 19.20689655 134 19.20689655 134 24 C129.46687731 23.43651351 126.51687584 21.61292136 122.6875 19.1875 C96.90736088 4.10588297 60.90680333 10.0624252 33.34521484 16.90771484 C28.77369293 18.10632676 24.21593349 19.33457755 19.68408203 20.67602539 C3.21266042 25.49426066 3.21266042 25.49426066 -2.6875 22.75 C-5.20378846 17.47777657 -4.92332705 11.76998115 -3.09375 6.28125 C-2.14151923 4.13192911 -1.13742665 2.05650801 0 0 Z " fill="#48568F" transform="translate(557,394)"/>
<path d="M0 0 C29.7 0 59.4 0 90 0 C90 60.06 90 120.12 90 182 C46.77 182 3.54 182 -41 182 C-41 181.67 -41 181.34 -41 181 C1.9 181 44.8 181 89 181 C88.85132927 149.58981871 88.85132927 149.58981871 88.69335938 118.1796875 C88.62690633 105.37761656 88.56149858 92.57554612 88.50268555 79.7734375 C88.45985475 70.45127412 88.41357958 61.12913539 88.36312145 51.80701005 C88.3365116 46.86839404 88.31165831 41.92978294 88.29092598 36.99113846 C88.27137629 32.34715299 88.24723756 27.70321447 88.21950912 23.05927086 C88.21012983 21.35080885 88.20245773 19.64233652 88.19658089 17.93385887 C88.18833459 15.60922521 88.17406217 13.28470595 88.15821838 10.96011353 C88.15176583 9.65669825 88.14531328 8.35328297 88.1386652 7.01037025 C88.20746936 4.07695207 88.20746936 4.07695207 87 2 C58.29 1.67 29.58 1.34 0 1 C0 0.67 0 0.34 0 0 Z " fill="#887DD3" transform="translate(729,422)"/>
<path d="M0 0 C94.71 0 189.42 0 287 0 C287 0.33 287 0.66 287 1 C269.08345562 1.18033968 251.16678397 1.34544027 233.25 1.5 C232.56228689 1.50594854 231.87457377 1.51189708 231.16602087 1.51802588 C178.79794331 1.9698504 126.43238674 2.08855867 74.0625 2.0625 C73.18447786 2.06207577 72.30645573 2.06165154 71.40182686 2.06121445 C48.93454022 2.050174 26.46726928 2.03014956 4 2 C3.98018066 2.89195068 3.96036133 3.78390137 3.93994141 4.70288086 C3.86125546 8.05225032 3.7745467 11.4012218 3.68261719 14.75024414 C3.64463229 16.1922218 3.60972976 17.63428442 3.578125 19.07641602 C3.40406054 26.92291568 3.09432561 34.38040072 1 42 C0.67 42 0.34 42 0 42 C0 28.14 0 14.28 0 0 Z " fill="#8575E8" transform="translate(529,423)"/>
<path d="M0 0 C2.97 0 5.94 0 9 0 C9 0.66 9 1.32 9 2 C10.07894531 2.36931641 10.07894531 2.36931641 11.1796875 2.74609375 C14.31244234 4.13891134 16.50765122 5.85736364 19.125 8.0625 C24.33910585 12.44456768 28.16994613 13.57474035 35 13 C37.73774618 12.07254351 37.73774618 12.07254351 40 11 C40.99 11 41.98 11 43 11 C43 11.99 43 12.98 43 14 C95.8 14 148.6 14 203 14 C203 14.33 203 14.66 203 15 C202.17062613 15.00331015 201.34125225 15.00662029 200.48674583 15.01003075 C180.30588441 15.09125246 160.1250981 15.18334226 139.94434166 15.28752708 C130.18507835 15.33764803 120.42582342 15.38409105 110.66650391 15.421875 C102.16024684 15.45481696 93.65405489 15.49466042 85.14786971 15.54279006 C80.64395596 15.56803308 76.14008529 15.58982089 71.63611984 15.60334396 C67.39589673 15.6161842 63.1558215 15.63825984 58.91567993 15.66738319 C57.36048609 15.67644361 55.80526845 15.68214562 54.25004959 15.68421364 C52.123757 15.68754707 49.99788091 15.7030532 47.87167358 15.7215271 C46.68256063 15.72705786 45.49344769 15.73258862 44.26830101 15.73828697 C40.87656629 16.0098841 38.19069548 16.85877067 35 18 C27.53067162 18.72283823 22.65891976 16.94947032 16.82421875 12.24609375 C15.45295098 11.04529437 14.09710388 9.82651841 12.76171875 8.5859375 C9.82967662 5.94644946 7.68237743 4.75564368 3.8125 4.375 C2.554375 4.25125 1.29625 4.1275 0 4 C0 2.68 0 1.36 0 0 Z " fill="#8076CA" transform="translate(485,589)"/>
<path d="M0 0 C2.31 0.66 4.62 1.32 7 2 C7 2.66 7 3.32 7 4 C8.1446875 4.433125 8.1446875 4.433125 9.3125 4.875 C12 6 12 6 15 8 C15 8.99 15 9.98 15 11 C13.865625 11.268125 12.73125 11.53625 11.5625 11.8125 C10.386875 12.204375 9.21125 12.59625 8 13 C7.67 13.99 7.34 14.98 7 16 C4.07920195 18.07530387 2.62453269 19 -1 19 C-0.1875 17.0625 -0.1875 17.0625 1 15 C1.99 14.67 2.98 14.34 4 14 C4 13.34 4 12.68 4 12 C-18.77 11.67 -41.54 11.34 -65 11 C-65 10.01 -65 9.02 -65 8 C-41.9 8 -18.8 8 5 8 C5 7.34 5 6.68 5 6 C4.01 6 3.02 6 2 6 C1.01 3.03 1.01 3.03 0 0 Z " fill="#495E7D" transform="translate(328,460)"/>
<path d="M0 0 C4.42757981 1.38361869 7.62735215 3.84242262 11.23046875 6.66015625 C12.96624445 8.05953287 12.96624445 8.05953287 15 9 C13.70977069 12.87068793 11.974634 13.76522963 8.6875 16.125 C7.72199219 16.82882812 6.75648438 17.53265625 5.76171875 18.2578125 C3.3711241 19.76588211 1.75205355 20.56856168 -1 21 C-0.875 19.125 -0.875 19.125 0 17 C3.0625 15.75 3.0625 15.75 6 15 C6 14.34 6 13.68 6 13 C-14.46 12.67 -34.92 12.34 -56 12 C-56 11.01 -56 10.02 -56 9 C-35.21 8.67 -14.42 8.34 7 8 C4.69 6.35 2.38 4.7 0 3 C0 2.01 0 1.02 0 0 Z " fill="#475B7E" transform="translate(358,567)"/>
<path d="M0 0 C1.1446875 0.12375 1.1446875 0.12375 2.3125 0.25 C1.3225 0.745 1.3225 0.745 0.3125 1.25 C0.3125 1.91 0.3125 2.57 0.3125 3.25 C-0.326875 3.53875 -0.96625 3.8275 -1.625 4.125 C-3.83956079 5.07823451 -3.83956079 5.07823451 -4.6875 7.25 C-4.0275 7.25 -3.3675 7.25 -2.6875 7.25 C-2.6875 7.91 -2.6875 8.57 -2.6875 9.25 C-1.39340408 8.79857119 -0.10228941 8.33858979 1.1875 7.875 C1.90679687 7.61976563 2.62609375 7.36453125 3.3671875 7.1015625 C5.49407994 6.31122217 5.49407994 6.31122217 7.3125 4.25 C8.3025 4.25 9.2925 4.25 10.3125 4.25 C10.3125 3.59 10.3125 2.93 10.3125 2.25 C10.97604492 2.32187027 11.63958984 2.39374054 12.32324219 2.4677887 C19.09969556 3.15002857 25.7561432 3.35826152 32.5625 3.27734375 C34.65494638 3.26471713 36.74739437 3.25235478 38.83984375 3.24023438 C42.09656948 3.21528146 45.35320912 3.18708706 48.60986328 3.15405273 C51.78158129 3.12396997 54.95318554 3.10613235 58.125 3.08984375 C59.10307617 3.07638412 60.08115234 3.0629245 61.08886719 3.04905701 C61.99411133 3.04567825 62.89935547 3.0422995 63.83203125 3.03881836 C64.62714111 3.03136093 65.42225098 3.0239035 66.24145508 3.01622009 C68.3125 3.25 68.3125 3.25 71.3125 5.25 C71.3125 5.91 71.3125 6.57 71.3125 7.25 C70.136875 7.0334375 70.136875 7.0334375 68.9375 6.8125 C58.94707987 5.26226239 49.02691284 5.02529828 38.9375 5 C38.24317871 4.99500488 37.54885742 4.99000977 36.83349609 4.98486328 C28.79649176 4.93750879 21.12079303 5.1804215 13.3125 7.25 C12.24 7.53359375 11.1675 7.8171875 10.0625 8.109375 C3.99494953 10.07443396 -1.19812719 12.46949623 -6.53125 15.98046875 C-8.61688789 17.20842584 -10.32353986 17.80407116 -12.6875 18.25 C-12.12771635 14.37930083 -11.0471506 11.88382859 -8.8125 8.6875 C-8.29945313 7.94371094 -7.78640625 7.19992187 -7.2578125 6.43359375 C-6.73960937 5.71300781 -6.22140625 4.99242187 -5.6875 4.25 C-5.18347656 3.50363281 -4.67945313 2.75726563 -4.16015625 1.98828125 C-2.6875 0.25 -2.6875 0.25 0 0 Z " fill="#505E96" transform="translate(352.6875,399.75)"/>
<path d="M0 0 C2.2029906 -0.00220593 4.4054948 -0.02046795 6.60839844 -0.03930664 C8.01725091 -0.04223783 9.42610573 -0.04422446 10.83496094 -0.04516602 C12.1037207 -0.0492749 13.37248047 -0.05338379 14.6796875 -0.05761719 C17.72616374 0.16906871 19.39901941 0.5727097 21.94433594 2.18530273 C20.73656494 2.22288696 20.73656494 2.22288696 19.50439453 2.26123047 C16.44393491 2.35781432 13.38356932 2.45692883 10.32324219 2.55761719 C8.37668778 2.62093712 6.43004374 2.68148238 4.48339844 2.74194336 C-1.95788004 2.95555719 -8.39516642 3.21869702 -14.82910156 3.59545898 C-15.95493652 3.65999268 -17.08077148 3.72452637 -18.24072266 3.79101562 C-21.25660684 4.0058783 -21.25660684 4.0058783 -24.05566406 6.18530273 C-26.62332952 6.79705254 -29.15110008 7.33593808 -31.74316406 7.81030273 C-32.44505859 7.94436523 -33.14695312 8.07842773 -33.87011719 8.21655273 C-35.59748112 8.54557444 -37.32642998 8.86625585 -39.05566406 9.18530273 C-39.05566406 9.84530273 -39.05566406 10.50530273 -39.05566406 11.18530273 C-39.69375 11.53463867 -40.33183594 11.88397461 -40.98925781 12.24389648 C-41.81554687 12.69893555 -42.64183594 13.15397461 -43.49316406 13.62280273 C-44.72873047 14.30149414 -44.72873047 14.30149414 -45.98925781 14.99389648 C-47.97875205 16.02192671 -47.97875205 16.02192671 -49.05566406 17.18530273 C-50.72183521 17.22594106 -52.38954501 17.22802374 -54.05566406 17.18530273 C-40.03145405 1.80391111 -19.74599227 -0.00221865 0 0 Z " fill="#4B5792" transform="translate(406.0556640625,381.814697265625)"/>
<path d="M0 0 C2.97 0 5.94 0 9 0 C9 0.66 9 1.32 9 2 C10.08667969 2.37125 10.08667969 2.37125 11.1953125 2.75 C14.27682922 4.12337793 16.33427735 5.79208767 18.875 8 C26.017336 13.81499922 32.06927803 14.32344667 41 14 C41 14.66 41 15.32 41 16 C35.66393043 18.13442783 30.53099429 19.14722966 24.9921875 17.34765625 C20.25288051 15.18244345 16.56117006 12.11565089 12.76171875 8.5859375 C9.82967662 5.94644946 7.68237743 4.75564368 3.8125 4.375 C2.554375 4.25125 1.29625 4.1275 0 4 C0 2.68 0 1.36 0 0 Z " fill="#6D76A2" transform="translate(485,589)"/>
<path d="M0 0 C0.92232422 0.00451172 1.84464844 0.00902344 2.79492188 0.01367188 C5.05085048 0.02536062 7.30663967 0.04174545 9.5625 0.0625 C6.45853508 2.7747244 4.36411161 3.47678634 0.2734375 3.72265625 C-0.75136719 3.79419922 -1.77617187 3.86574219 -2.83203125 3.93945312 C-3.89808594 4.00068359 -4.96414063 4.06191406 -6.0625 4.125 C-12.92873462 4.55360921 -19.50037677 5.179654 -26.22705078 6.64135742 C-29.19485817 7.20679455 -32.04776129 7.2576102 -35.0625 7.1875 C-36.08601563 7.16945313 -37.10953125 7.15140625 -38.1640625 7.1328125 C-38.91429687 7.10960937 -39.66453125 7.08640625 -40.4375 7.0625 C-40.7675 5.7425 -41.0975 4.4225 -41.4375 3.0625 C-40.4019397 2.97947632 -40.4019397 2.97947632 -39.34545898 2.89477539 C-36.18845586 2.64040464 -33.03173062 2.3827296 -29.875 2.125 C-28.78896484 2.03798828 -27.70292969 1.95097656 -26.58398438 1.86132812 C-22.30013839 1.5097663 -18.06133062 1.1593013 -13.8125 0.5 C-9.19752491 -0.09823751 -4.64740416 -0.04349622 0 0 Z " fill="#777FA8" transform="translate(484.4375,667.9375)"/>
<path d="M0 0 C8.0747952 3.53792573 16.75503536 7.63002626 22 15 C21.76171875 18.28125 21.76171875 18.28125 21 21 C10.44191344 19.07289294 10.44191344 19.07289294 6 17 C6.639375 16.773125 7.27875 16.54625 7.9375 16.3125 C10.24368747 15.1522833 10.24368747 15.1522833 10.8125 12.5 C11.21473491 10.00209044 11.21473491 10.00209044 10 8 C8.11986894 6.87775145 8.11986894 6.87775145 5.9375 5.875 C5.20402344 5.52179688 4.47054687 5.16859375 3.71484375 4.8046875 C3.14894531 4.53914063 2.58304688 4.27359375 2 4 C2 3.34 2 2.68 2 2 C1.01 1.67 0.02 1.34 -1 1 C-0.67 0.67 -0.34 0.34 0 0 Z " fill="#3C5099" transform="translate(661,388)"/>
<path d="M0 0 C0.72663849 -0.00807175 1.45327698 -0.01614349 2.20193481 -0.02445984 C3.73648763 -0.03821708 5.27106996 -0.04897615 6.80566406 -0.05688477 C8.33928728 -0.0683081 9.87287387 -0.08860353 11.40625 -0.1184082 C23.01335701 -0.34306998 37.26395765 -0.42428865 47.2578125 6.23828125 C44.52939189 7.60249156 42.64827932 7.11635336 39.6328125 6.80078125 C38.62992188 6.69894531 37.62703125 6.59710938 36.59375 6.4921875 C35.82289063 6.40839844 35.05203125 6.32460938 34.2578125 6.23828125 C34.2578125 5.24828125 34.2578125 4.25828125 34.2578125 3.23828125 C10.0028125 2.74328125 10.0028125 2.74328125 -14.7421875 2.23828125 C-14.7421875 1.90828125 -14.7421875 1.57828125 -14.7421875 1.23828125 C-9.81136617 0.44521488 -4.99754371 0.05460027 0 0 Z " fill="#505B96" transform="translate(612.7421875,381.76171875)"/>
<path d="M0 0 C2.31 0.66 4.62 1.32 7 2 C7 2.66 7 3.32 7 4 C7.763125 4.28875 8.52625 4.5775 9.3125 4.875 C12 6 12 6 15 8 C15 8.99 15 9.98 15 11 C13.865625 11.268125 12.73125 11.53625 11.5625 11.8125 C10.386875 12.204375 9.21125 12.59625 8 13 C7.67 13.99 7.34 14.98 7 16 C4.07920195 18.07530387 2.62453269 19 -1 19 C-0.1875 17.0625 -0.1875 17.0625 1 15 C1.99 14.67 2.98 14.34 4 14 C4 13.34 4 12.68 4 12 C3.01 11.67 2.02 11.34 1 11 C4.465 10.505 4.465 10.505 8 10 C8 9.34 8 8.68 8 8 C7.01 8 6.02 8 5 8 C5 7.34 5 6.68 5 6 C4.01 6 3.02 6 2 6 C1.34 4.02 0.68 2.04 0 0 Z " fill="#4C72BD" transform="translate(328,460)"/>
<path d="M0 0 C22.11 0 44.22 0 67 0 C67 0.99 67 1.98 67 3 C65.13671875 4.82421875 65.13671875 4.82421875 62.6875 6.6875 C61.48673828 7.62142578 61.48673828 7.62142578 60.26171875 8.57421875 C58 10 58 10 55 10 C55.125 8.125 55.125 8.125 56 6 C59.0625 4.75 59.0625 4.75 62 4 C62 3.34 62 2.68 62 2 C41.54 1.67 21.08 1.34 0 1 C0 0.67 0 0.34 0 0 Z " fill="#647895" transform="translate(302,578)"/>
<path d="M0 0 C1.1446875 0.12375 1.1446875 0.12375 2.3125 0.25 C1.3225 0.745 1.3225 0.745 0.3125 1.25 C0.3125 1.91 0.3125 2.57 0.3125 3.25 C-0.326875 3.53875 -0.96625 3.8275 -1.625 4.125 C-3.83956079 5.07823451 -3.83956079 5.07823451 -4.6875 7.25 C-4.0275 7.25 -3.3675 7.25 -2.6875 7.25 C-2.6875 7.91 -2.6875 8.57 -2.6875 9.25 C0.7775 8.755 0.7775 8.755 4.3125 8.25 C1.93894274 10.84923976 -0.61078602 12.57100426 -3.625 14.375 C-4.47964844 14.89320313 -5.33429688 15.41140625 -6.21484375 15.9453125 C-8.42048246 17.10910923 -10.25324338 17.78686997 -12.6875 18.25 C-12.12771635 14.37930083 -11.0471506 11.88382859 -8.8125 8.6875 C-8.29945313 7.94371094 -7.78640625 7.19992187 -7.2578125 6.43359375 C-6.73960937 5.71300781 -6.22140625 4.99242187 -5.6875 4.25 C-5.18347656 3.50363281 -4.67945313 2.75726563 -4.16015625 1.98828125 C-2.6875 0.25 -2.6875 0.25 0 0 Z " fill="#41528C" transform="translate(352.6875,399.75)"/>
<path d="M0 0 C2.84757105 2.84757105 2.40658983 4.99788409 2.6328125 8.984375 C2.67437469 9.6775885 2.71593689 10.370802 2.75875854 11.08502197 C2.88957287 13.30627598 3.00721876 15.52802083 3.125 17.75 C3.21142324 19.23181867 3.29865352 20.71359051 3.38671875 22.1953125 C3.73031394 28.13392287 4.05397527 34.0489399 4 40 C3.34 40 2.68 40 2 40 C2 42.64 2 45.28 2 48 C1.67 48 1.34 48 1 48 C0.10153661 31.98809891 -0.12488772 16.03558345 0 0 Z " fill="#9399A6" transform="translate(695,278)"/>
<path d="M0 0 C8.55351574 -0.02315806 17.10701841 -0.04093279 25.66055775 -0.05181217 C29.63219624 -0.0570334 33.6038133 -0.0641173 37.57543945 -0.07543945 C41.40741372 -0.08629527 45.23936736 -0.09228257 49.07135582 -0.09487724 C50.53420016 -0.09672662 51.99704335 -0.10033792 53.45987892 -0.10573006 C55.50688757 -0.11297622 57.55381069 -0.11398943 59.60083008 -0.11352539 C60.76665115 -0.115746 61.93247223 -0.11796661 63.13362122 -0.12025452 C66 0 66 0 69 1 C69 1.66 69 2.32 69 3 C66.5 4.625 66.5 4.625 64 6 C63.566875 5.525625 63.13375 5.05125 62.6875 4.5625 C60.97690387 2.76313043 60.97690387 2.76313043 58 2 C57.67 2.66 57.34 3.32 57 4 C57 3.01 57 2.02 57 1 C38.19 1 19.38 1 0 1 C0 0.67 0 0.34 0 0 Z " fill="#CADCF4" transform="translate(263,471)"/>
<path d="M0 0 C1 3 1 3 0.0625 5.1875 C-1.7900182 10.09122465 -1.39997779 14.97127977 0 20 C1.89575251 20.02721176 3.79161979 20.04649136 5.6875 20.0625 C6.74324219 20.07410156 7.79898438 20.08570313 8.88671875 20.09765625 C11.72410262 20.00865425 14.2438919 19.64939838 17 19 C15 22 15 22 13.046875 22.73046875 C1.76491604 24.97534834 1.76491604 24.97534834 -2.375 22.6875 C-5.02345233 18.3073673 -4.69563603 13.97647312 -4 9 C-2.94276524 5.82829571 -1.61679608 2.92322505 0 0 Z " fill="#4D598F" transform="translate(557,394)"/>
<path d="M0 0 C4.00221761 1.06223241 7.82203534 2.495158 11.625 4.125 C14.70629518 5.26021401 17.74884735 5.61751145 21 6 C19 8 19 8 15.5625 8.3125 C10.13644901 8.17513162 5.15628495 6.57889001 0 5 C-0.96550781 4.71382813 -1.93101562 4.42765625 -2.92578125 4.1328125 C-5.28691842 3.43148463 -7.64462813 2.72040658 -10 2 C-6.20760144 -0.52826571 -4.51916778 -0.36444901 0 0 Z " fill="#556095" transform="translate(453,410)"/>
<path d="M0 0 C0.66 0 1.32 0 2 0 C2.47491392 2.37456958 2.94889641 4.74926673 3.41796875 7.125 C3.79831423 9.00375351 4.19604769 10.87909284 4.61328125 12.75 C4.80277344 13.61625 4.99226562 14.4825 5.1875 15.375 C5.36667969 16.16648437 5.54585937 16.95796875 5.73046875 17.7734375 C6.01732762 20.14314125 5.72632526 21.74375557 5 24 C4.01 24 3.02 24 2 24 C-0.63537118 16.09388645 -0.17981101 8.23134837 0 0 Z " fill="#818BAA" transform="translate(697,318)"/>
<path d="M0 0 C1.58409994 0.11487748 3.16728963 0.24234508 4.75 0.375 C5.63171875 0.44460938 6.5134375 0.51421875 7.421875 0.5859375 C10.05907944 1.00948852 11.80285214 1.48197057 14 3 C14.75 6.625 14.75 6.625 15 10 C10.75354935 10 8.61475228 8.18249194 5 6 C5 5.34 5 4.68 5 4 C2.36 4 -0.28 4 -3 4 C-2.01 3.67 -1.02 3.34 0 3 C0 2.01 0 1.02 0 0 Z " fill="#E3E9F7" transform="translate(489,585)"/>
<path d="M0 0 C0.66 0.99 1.32 1.98 2 3 C2.639375 2.814375 3.27875 2.62875 3.9375 2.4375 C4.618125 2.293125 5.29875 2.14875 6 2 C6.33 2.33 6.66 2.66 7 3 C10.66344611 3.13568319 13.50615721 3.16461426 17 2 C17 2.66 17 3.32 17 4 C18.32 4.33 19.64 4.66 21 5 C3.14350797 7.29612756 3.14350797 7.29612756 -5 7 C-5.33 5.35 -5.66 3.7 -6 2 C-3.525 2.495 -3.525 2.495 -1 3 C-0.67 2.01 -0.34 1.02 0 0 Z " fill="#F4F9FC" transform="translate(601,376)"/>
<path d="M0 0 C0.33 0 0.66 0 1 0 C1.11995 14.37370111 0.94730645 28.65507373 0 43 C-0.33 43 -0.66 43 -1 43 C-2.45468989 28.34919468 -1.70746858 14.57446397 0 0 Z " fill="#969BAB" transform="translate(333,277)"/>
<path d="M0 0 C0 0.33 0 0.66 0 1 C7.59 1 15.18 1 23 1 C23 1.33 23 1.66 23 2 C18.18074233 3.18749676 13.37277108 3.29796867 8.4375 3.5 C0.94037322 3.83749343 -6.52761119 4.28617424 -14 5 C-10.359447 -0.28849563 -6.27583551 -1.84583397 0 0 Z " fill="#D8DFF3" transform="translate(476,665)"/>
<path d="M0 0 C6.27 0.33 12.54 0.66 19 1 C19 1.99 19 2.98 19 4 C15.80843552 5.06385483 13.41502524 5.16677982 10.0625 5.1875 C8.50208984 5.20876953 8.50208984 5.20876953 6.91015625 5.23046875 C4.04953387 5.00392282 2.42329849 4.47733619 0 3 C0.66 2.67 1.32 2.34 2 2 C1.34 1.34 0.68 0.68 0 0 Z " fill="#8086AE" transform="translate(568,670)"/>
<path d="M0 0 C1.16063965 0.02707031 2.3212793 0.05414063 3.51708984 0.08203125 C5.34361084 0.14970703 5.34361084 0.14970703 7.20703125 0.21875 C8.39248535 0.25355469 9.57793945 0.28835938 10.79931641 0.32421875 C14.37367227 0.43721106 17.94632291 0.57418061 21.51953125 0.71875 C22.74865234 0.76644531 23.97777344 0.81414062 25.24414062 0.86328125 C28.23186613 0.97953516 31.21948248 1.09805393 34.20703125 1.21875 C34.20703125 1.54875 34.20703125 1.87875 34.20703125 2.21875 C19.86332306 2.91116678 5.56788335 3.3711647 -8.79296875 3.21875 C-6.18610445 -0.1862253 -4.15601619 -0.12075281 0 0 Z " fill="#5F6EA3" transform="translate(613.79296875,401.78125)"/>
<path d="M0 0 C2.27156921 0.06001504 4.54239274 0.14879968 6.8125 0.25 C8.07707031 0.29640625 9.34164062 0.3428125 10.64453125 0.390625 C14 1 14 1 15.94921875 2.984375 C17 5 17 5 17 6 C14.03 5.67 11.06 5.34 8 5 C8 4.67 8 4.34 8 4 C3.38 4 -1.24 4 -6 4 C-5.67 3.01 -5.34 2.02 -5 1 C-3.35 1.33 -1.7 1.66 0 2 C0 1.34 0 0.68 0 0 Z " fill="#F6FCF9" transform="translate(633,377)"/>
<path d="M0 0 C4.24994263 -0.05805933 8.49978324 -0.09361654 12.75 -0.125 C13.9565625 -0.14175781 15.163125 -0.15851562 16.40625 -0.17578125 C17.56640625 -0.18222656 18.7265625 -0.18867187 19.921875 -0.1953125 C20.99018555 -0.20578613 22.05849609 -0.21625977 23.15917969 -0.22705078 C25.97979105 -0.00161519 27.60787463 0.54151006 30 2 C29.67 2.66 29.34 3.32 29 4 C21.72064777 4.25101215 21.72064777 4.25101215 18.21875 3.03125 C14.51321553 1.84403993 10.98007796 1.55430595 7.125 1.375 C6.43664062 1.33632813 5.74828125 1.29765625 5.0390625 1.2578125 C3.35976754 1.16451834 1.67992233 1.08121762 0 1 C0 0.67 0 0.34 0 0 Z " fill="#66709B" transform="translate(475,669)"/>
<path d="M0 0 C2.97 0 5.94 0 9 0 C9 0.66 9 1.32 9 2 C11.475 2.99 11.475 2.99 14 4 C14 5.32 14 6.64 14 8 C9.125 6.125 9.125 6.125 8 5 C6.65252916 4.76924918 5.29622435 4.58846937 3.9375 4.4375 C2.638125 4.293125 1.33875 4.14875 0 4 C0 2.68 0 1.36 0 0 Z " fill="#747EA8" transform="translate(485,589)"/>
<path d="M0 0 C5.21442276 -0.0494186 10.42870934 -0.08572831 15.64331055 -0.10986328 C17.41742324 -0.11992411 19.19151935 -0.13357422 20.96557617 -0.15087891 C23.51485284 -0.17512378 26.06391037 -0.18648218 28.61328125 -0.1953125 C29.80405022 -0.21079636 29.80405022 -0.21079636 31.01887512 -0.22659302 C34.88223043 -0.2273811 36.70839446 -0.19440369 40 2 C40 2.66 40 3.32 40 4 C39.1234375 3.86722656 38.246875 3.73445313 37.34375 3.59765625 C24.92680001 1.86887358 12.52266652 1.38584368 0 1 C0 0.67 0 0.34 0 0 Z " fill="#6875A5" transform="translate(384,403)"/>
<path d="M0 0 C0 0.66 0 1.32 0 2 C2.97 2.33 5.94 2.66 9 3 C9 3.33 9 3.66 9 4 C-1.07596838 4.465841 -10.21174564 3.11094574 -20 1 C-20 0.67 -20 0.34 -20 0 C-5.24590164 -2.62295082 -5.24590164 -2.62295082 0 0 Z " fill="#D9E0F6" transform="translate(514,668)"/>
<path d="M0 0 C7.58404574 -0.26872603 15.74237225 -0.46969034 23 2 C24.15209961 4.05175781 24.15209961 4.05175781 25 6 C21.58147787 5.3848809 18.16558828 4.75618997 14.75 4.125 C13.78191406 3.95097656 12.81382812 3.77695312 11.81640625 3.59765625 C10.88183594 3.42363281 9.94726562 3.24960937 8.984375 3.0703125 C7.69611816 2.83465576 7.69611816 2.83465576 6.38183594 2.59423828 C4.02245783 2.00560295 2.12195866 1.17266137 0 0 Z " fill="#4A5692" transform="translate(641,401)"/>
<path d="M0 0 C1.14889133 3.93905597 1.52582695 7.93565958 2 12 C-1.96 12 -5.92 12 -10 12 C-8 11 -6 10 -4 9 C-3.855625 7.865625 -3.71125 6.73125 -3.5625 5.5625 C-3.376875 4.386875 -3.19125 3.21125 -3 2 C-2.01 1.34 -1.02 0.68 0 0 Z " fill="#F2F9FB" transform="translate(327,455)"/>
<path d="M0 0 C3.5697621 4.65621143 4.15700467 7.04731113 4.1875 13 C4.20167969 14.258125 4.21585937 15.51625 4.23046875 16.8125 C4 20 4 20 2 22 C1.06966729 18.27866918 1.02918168 14.88420717 1.1015625 11.0625 C0.99603591 8.91949854 0.57598865 7.16816367 -0.0625 5.125 C-1 2 -1 2 0 0 Z " fill="#47548F" transform="translate(472,394)"/>
<path d="M0 0 C4.42757981 1.38361869 7.62735215 3.84242262 11.23046875 6.66015625 C12.96624445 8.05953287 12.96624445 8.05953287 15 9 C14.67 9.99 14.34 10.98 14 12 C11.03 11.505 11.03 11.505 8 11 C8.33 10.01 8.66 9.02 9 8 C8.2575 7.731875 7.515 7.46375 6.75 7.1875 C4.09090121 6.0392528 2.12218515 4.96498625 0 3 C0 2.01 0 1.02 0 0 Z " fill="#335472" transform="translate(358,567)"/>
<path d="M0 0 C1.65 0 3.3 0 5 0 C5 4.66666667 5 9.33333333 5 14 C4.34 14 3.68 14 3 14 C0.96006486 9.07015675 -0.40652968 5.42039575 0 0 Z " fill="#ECF5FB" transform="translate(706,347)"/>
<path d="M0 0 C2.08268593 -0.08126087 4.16628658 -0.13930839 6.25 -0.1875 C7.99023438 -0.23970703 7.99023438 -0.23970703 9.765625 -0.29296875 C13.22882755 0.02072713 14.59230906 0.53867238 17 3 C17 3.66 17 4.32 17 5 C16.27554687 4.86722656 15.55109375 4.73445313 14.8046875 4.59765625 C9.87508895 3.69718291 4.94677877 2.80218034 0 2 C0 1.34 0 0.68 0 0 Z " fill="#4F5D93" transform="translate(426,406)"/>
<path d="M0 0 C0 0.33 0 0.66 0 1 C-3.89581756 1.02911003 -7.791607 1.04683587 -11.6875 1.0625 C-12.79029297 1.07087891 -13.89308594 1.07925781 -15.02929688 1.08789062 C-16.6293457 1.09272461 -16.6293457 1.09272461 -18.26171875 1.09765625 C-19.24100342 1.10289307 -20.22028809 1.10812988 -21.22924805 1.11352539 C-23.92469572 1.00308543 -26.37545639 0.60534166 -29 0 C-29 -0.33 -29 -0.66 -29 -1 C-27.13794922 -0.98259766 -27.13794922 -0.98259766 -25.23828125 -0.96484375 C-23.59635568 -0.95546132 -21.95442847 -0.9463616 -20.3125 -0.9375 C-19.49587891 -0.92912109 -18.67925781 -0.92074219 -17.83789062 -0.91210938 C-2.14641106 -0.84858112 -2.14641106 -0.84858112 0 0 Z " fill="#3C4B90" transform="translate(645,402)"/>
<path d="M0 0 C3.37191712 5.05787568 4.23926553 7.77909633 4 14 C3.01 14.33 2.02 14.66 1 15 C-0.66251802 9.42567486 -1.18609365 5.6932495 0 0 Z " fill="#68739D" transform="translate(701,339)"/>
<path d="M0 0 C1.32 0.33 2.64 0.66 4 1 C0.83710367 4.25326479 -2.29465367 7.36725392 -6 10 C-6.99 10 -7.98 10 -9 10 C-8.875 8.125 -8.875 8.125 -8 6 C-4.9375 4.75 -4.9375 4.75 -2 4 C-2 3.34 -2 2.68 -2 2 C-1.34 2 -0.68 2 0 2 C0 1.34 0 0.68 0 0 Z " fill="#5B697E" transform="translate(366,578)"/>
<path d="M0 0 C0.33 0 0.66 0 1 0 C0.979375 1.19625 0.95875 2.3925 0.9375 3.625 C0.9278498 6.34635567 1.11093599 8.66561597 1.5625 11.375 C2 14 2 14 1 16 C0.01 16 -0.98 16 -2 16 C-2.05402274 13.89611431 -2.09280256 11.79183286 -2.125 9.6875 C-2.14820313 8.51574219 -2.17140625 7.34398437 -2.1953125 6.13671875 C-2 3 -2 3 0 0 Z " fill="#F6FBFB" transform="translate(725,405)"/>
<path d="M0 0 C0 0.33 0 0.66 0 1 C-7.92 2.32 -15.84 3.64 -24 5 C-24 4.34 -24 3.68 -24 3 C-17.12880516 -1.02455698 -7.75926596 -0.14921665 0 0 Z " fill="#556295" transform="translate(616,405)"/>
<path d="M0 0 C2.97246802 2.54782974 4.41535288 5.45340883 6 9 C6 9.66 6 10.32 6 11 C2.31245243 10.50168276 0.39509338 9.89932357 -2 7 C-1.67 6.34 -1.34 5.68 -1 5 C-0.34 5 0.32 5 1 5 C0.67 3.35 0.34 1.7 0 0 Z " fill="#656A96" transform="translate(685,407)"/>
<path d="M0 0 C0 0.33 0 0.66 0 1 C-0.97582031 1.04898437 -1.95164062 1.09796875 -2.95703125 1.1484375 C-4.22933594 1.22320312 -5.50164062 1.29796875 -6.8125 1.375 C-8.70935547 1.47941406 -8.70935547 1.47941406 -10.64453125 1.5859375 C-14.12755234 1.76102939 -14.12755234 1.76102939 -17 4 C-18.32 4 -19.64 4 -21 4 C-21 3.34 -21 2.68 -21 2 C-14.0342286 -2.17946284 -7.63780446 -1.27296741 0 0 Z " fill="#445391" transform="translate(399,384)"/>
<path d="M0 0 C0.66 0 1.32 0 2 0 C3.38226016 2.76452033 3.09525387 5.0461363 3.0625 8.125 C3.05347656 9.22070312 3.04445313 10.31640625 3.03515625 11.4453125 C3.02355469 12.28835938 3.01195312 13.13140625 3 14 C2.01 14.495 2.01 14.495 1 15 C-0.09506492 11.71480525 -0.09960608 9.26336585 -0.0625 5.8125 C-0.05347656 4.72582031 -0.04445313 3.63914062 -0.03515625 2.51953125 C-0.02355469 1.68808594 -0.01195312 0.85664063 0 0 Z " fill="#6E7B99" transform="translate(697,318)"/>
<path d="M0 0 C0.33 0 0.66 0 1 0 C1 6.6 1 13.2 1 20 C0.67 20 0.34 20 0 20 C-0.33 18.35 -0.66 16.7 -1 15 C-1.33 15 -1.66 15 -2 15 C-1.85930804 12.87465341 -1.71229079 10.74972471 -1.5625 8.625 C-1.48128906 7.44164062 -1.40007812 6.25828125 -1.31640625 5.0390625 C-1 2 -1 2 0 0 Z " fill="#7882A8" transform="translate(331,308)"/>
<path d="M0 0 C1.94113934 0.92994117 3.8777951 1.8692453 5.8125 2.8125 C6.89144531 3.33457031 7.97039063 3.85664063 9.08203125 4.39453125 C11.56579702 5.76110117 13.1799378 6.87340101 15 9 C14.67 9.66 14.34 10.32 14 11 C13.46890625 10.66226562 12.9378125 10.32453125 12.390625 9.9765625 C11.68421875 9.53054688 10.9778125 9.08453125 10.25 8.625 C9.55390625 8.18414062 8.8578125 7.74328125 8.140625 7.2890625 C6.13482617 6.08119094 4.10821704 5.01612263 2 4 C2 3.34 2 2.68 2 2 C1.01 1.67 0.02 1.34 -1 1 C-0.67 0.67 -0.34 0.34 0 0 Z " fill="#424F88" transform="translate(661,388)"/>
<path d="M0 0 C-3.07692746 2.6815279 -5.19734663 3.42087807 -9.25 3.6875 C-10.14203125 3.75324219 -11.0340625 3.81898438 -11.953125 3.88671875 C-12.62859375 3.92410156 -13.3040625 3.96148437 -14 4 C-14 3.01 -14 2.02 -14 1 C-12.41913952 0.63495397 -10.83516093 0.28339494 -9.25 -0.0625 C-8.36828125 -0.25972656 -7.4865625 -0.45695312 -6.578125 -0.66015625 C-4.01320972 -0.99825872 -2.42908361 -0.81158635 0 0 Z " fill="#DFE6F6" transform="translate(572,417)"/>
<path d="M0 0 C0.33 0.66 0.66 1.32 1 2 C1.66 2.33 2.32 2.66 3 3 C2.34 3 1.68 3 1 3 C1 3.66 1 4.32 1 5 C1.99 4.67 2.98 4.34 4 4 C6.36522558 4.92203709 8.70401807 5.91698965 11 7 C8.91836944 8.26384713 7.52513785 9.01693993 5.0625 8.9375 C2.06761571 7.57618896 0.20917772 5.39327587 -2 3 C-1.34 2.01 -0.68 1.02 0 0 Z " fill="#DEE9F9" transform="translate(505,593)"/>
<path d="M0 0 C0.33 0.66 0.66 1.32 1 2 C0.36474424 3.67889021 -0.30686092 5.34416775 -1 7 C-1.36871088 8.65919896 -1.71281674 10.3247643 -2 12 C-3.32 12.33 -4.64 12.66 -6 13 C-5.51675181 7.84535266 -2.81389239 4.18449681 0 0 Z " fill="#687291" transform="translate(346,405)"/>
<path d="M0 0 C1.20366211 0.00483398 1.20366211 0.00483398 2.43164062 0.00976562 C3.68170898 0.02233398 3.68170898 0.02233398 4.95703125 0.03515625 C5.80201172 0.03966797 6.64699219 0.04417969 7.51757812 0.04882812 C9.6015928 0.06060222 11.68557102 0.07853735 13.76953125 0.09765625 C13.76953125 0.42765625 13.76953125 0.75765625 13.76953125 1.09765625 C12.37927734 1.18853516 12.37927734 1.18853516 10.9609375 1.28125 C9.16462891 1.40693359 9.16462891 1.40693359 7.33203125 1.53515625 C6.13707031 1.61636719 4.94210937 1.69757812 3.7109375 1.78125 C0.88382881 1.77421739 0.88382881 1.77421739 -0.23046875 3.09765625 C-2.90105726 3.23880786 -5.55479113 3.14012732 -8.23046875 3.09765625 C-6.49780437 -0.36767252 -3.47924994 -0.02467553 0 0 Z " fill="#646E99" transform="translate(538.23046875,668.90234375)"/>
<path d="M0 0 C2.475 0.495 2.475 0.495 5 1 C5 1.66 5 2.32 5 3 C6.32 3.33 7.64 3.66 9 4 C8.67 4.33 8.34 4.66 8 5 C8.66 5.33 9.32 5.66 10 6 C9.67 7.98 9.34 9.96 9 12 C8.01 11.34 7.02 10.68 6 10 C6.99 9.01 7.98 8.02 9 7 C8.2575 6.731875 7.515 6.46375 6.75 6.1875 C4.10938051 5.04723249 2.14447156 3.90619694 0 2 C0 1.34 0 0.68 0 0 Z " fill="#D0E1EC" transform="translate(364,569)"/>
<path d="M0 0 C0.66 0.33 1.32 0.66 2 1 C1.95875 2.155 1.9175 3.31 1.875 4.5 C1.85912567 8.94481301 2.78206895 12.73724131 4 17 C3.01 17.33 2.02 17.66 1 18 C0.63737003 15.56348622 0.28461036 13.12623023 -0.0625 10.6875 C-0.2181543 9.65206055 -0.2181543 9.65206055 -0.37695312 8.59570312 C-0.83808836 5.30415164 -1.06594625 3.19783876 0 0 Z " fill="#EFF5FC" transform="translate(476,395)"/>
<path d="M0 0 C6.93 0.495 6.93 0.495 14 1 C14 1.33 14 1.66 14 2 C12.35 2 10.7 2 9 2 C9 2.66 9 3.32 9 4 C5.37 3.67 1.74 3.34 -2 3 C-1.34 2.67 -0.68 2.34 0 2 C0 1.34 0 0.68 0 0 Z " fill="#4E5E90" transform="translate(450,386)"/>
<path d="M0 0 C3.3 0.33 6.6 0.66 10 1 C10 1.99 10 2.98 10 4 C6.7 4 3.4 4 0 4 C-0.33 3.34 -0.66 2.68 -1 2 C-0.67 1.34 -0.34 0.68 0 0 Z " fill="#F4F9FD" transform="translate(574,667)"/>
<path d="M0 0 C0.33 0 0.66 0 1 0 C1.33 2.31 1.66 4.62 2 7 C2.33 7 2.66 7 3 7 C2.67 12.28 2.34 17.56 2 23 C1.67 23 1.34 23 1 23 C-0.24911667 15.34916042 -0.09053426 7.72559014 0 0 Z " fill="#B5BBC4" transform="translate(305,403)"/>
<path d="M0 0 C-1.65 0.33 -3.3 0.66 -5 1 C-5 1.66 -5 2.32 -5 3 C-7.56893838 4.28446919 -9.76576337 4.32977144 -12.625 4.5625 C-13.62789063 4.64628906 -14.63078125 4.73007812 -15.6640625 4.81640625 C-16.43492187 4.87699219 -17.20578125 4.93757813 -18 5 C-17 3 -17 3 -14.19921875 1.89453125 C-12.46091797 1.35892578 -12.46091797 1.35892578 -10.6875 0.8125 C-9.53636719 0.44769531 -8.38523437 0.08289063 -7.19921875 -0.29296875 C-4.20460307 -0.95478247 -2.80251881 -1.08640853 0 0 Z " fill="#576492" transform="translate(383,385)"/>
<path d="M0 0 C-0.99 1.485 -0.99 1.485 -2 3 C-3.875 3.328125 -3.875 3.328125 -6 3.25 C-6.70125 3.23453125 -7.4025 3.2190625 -8.125 3.203125 C-10 3 -10 3 -12 2 C-12 1.34 -12 0.68 -12 0 C-3.42857143 -1.28571429 -3.42857143 -1.28571429 0 0 Z " fill="#F5FAFD" transform="translate(586,676)"/>
<path d="M0 0 C2.05078125 0.03255208 4.1015625 0.06510417 6.15234375 0.09765625 C5.82234375 1.08765625 5.49234375 2.07765625 5.15234375 3.09765625 C1.58984375 4.78515625 1.58984375 4.78515625 -1.84765625 6.09765625 C-2.22984392 4.44150968 -2.56160727 2.77308601 -2.84765625 1.09765625 C-1.84765625 0.09765625 -1.84765625 0.09765625 0 0 Z " fill="#D6ECF8" transform="translate(358.84765625,578.90234375)"/>
<path d="M0 0 C1.21445786 3.64337358 2.02328113 7.14309356 2 11 C0.5625 13.5 0.5625 13.5 -1 15 C-1.33 14.67 -1.66 14.34 -2 14 C-1.93577976 12.01793001 -1.79882322 10.03797746 -1.625 8.0625 C-1.53476562 6.98097656 -1.44453125 5.89945312 -1.3515625 4.78515625 C-1 2 -1 2 0 0 Z " fill="#7D83A8" transform="translate(310,381)"/>
<path d="M0 0 C4.62 0 9.24 0 14 0 C10.83759418 2.10827055 9.49342531 2.33817465 5.8125 2.625 C4.46091797 2.73714844 4.46091797 2.73714844 3.08203125 2.8515625 C2.05142578 2.92503906 2.05142578 2.92503906 1 3 C0.67 2.01 0.34 1.02 0 0 Z " fill="#666F9A" transform="translate(459,670)"/>
<path d="M0 0 C1.99097846 2.98646769 2.94124926 5.59687262 4 9 C2.68 9.33 1.36 9.66 0 10 C-1.06775224 8.03533587 -2.06553465 6.03144641 -3 4 C-2.67 3.34 -2.34 2.68 -2 2 C-1.34 2.33 -0.68 2.66 0 3 C0 2.01 0 1.02 0 0 Z " fill="#7981A8" transform="translate(708,358)"/>
<path d="M0 0 C1.65 0 3.3 0 5 0 C5 1.98 5 3.96 5 6 C3.02 6.99 3.02 6.99 1 8 C0.17361624 5.10765685 0 3.11257569 0 0 Z " fill="#F1FCF8" transform="translate(352,579)"/>
<path d="M0 0 C3.96 0 7.92 0 12 0 C12 0.66 12 1.32 12 2 C9.5 3.625 9.5 3.625 7 5 C6.566875 4.525625 6.13375 4.05125 5.6875 3.5625 C3.97690387 1.76313043 3.97690387 1.76313043 1 1 C0.67 1.66 0.34 2.32 0 3 C0 2.01 0 1.02 0 0 Z " fill="#D9E8FA" transform="translate(320,472)"/>
<path d="M0 0 C2.16874252 0.50603992 3.99967627 0.99983813 6 2 C6 2.99 6 3.98 6 5 C3.69 5.66 1.38 6.32 -1 7 C-0.67 4.69 -0.34 2.38 0 0 Z " fill="#2849A2" transform="translate(337,466)"/>
<path d="M0 0 C0.66 0 1.32 0 2 0 C3.60725635 3.21451269 3.05748185 6.43612536 3 10 C2.01 10 1.02 10 0 10 C0 6.7 0 3.4 0 0 Z " fill="#F4FAFE" transform="translate(699,302)"/>
<path d="M0 0 C0.33 0 0.66 0 1 0 C1.33 4.62 1.66 9.24 2 14 C0.35 13.67 -1.3 13.34 -3 13 C-2.125 9.125 -2.125 9.125 -1 8 C-0.76924918 6.65252916 -0.58846937 5.29622435 -0.4375 3.9375 C-0.2209375 1.9884375 -0.2209375 1.9884375 0 0 Z " fill="#E5E5EE" transform="translate(822,592)"/>
<path d="M0 0 C2.475 0.495 2.475 0.495 5 1 C6 4 6 4 5 7 C2 6 2 6 0 3 C0 2.01 0 1.02 0 0 Z " fill="#F4FBF4" transform="translate(321,473)"/>
<path d="M0 0 C2.31 0.66 4.62 1.32 7 2 C7.33 3.32 7.66 4.64 8 6 C5.69 5.34 3.38 4.68 1 4 C0.67 2.68 0.34 1.36 0 0 Z " fill="#2D4B91" transform="translate(328,460)"/>
<path d="M0 0 C0.66 1.65 1.32 3.3 2 5 C-3.94 3.515 -3.94 3.515 -10 2 C-6.3558226 -0.4294516 -4.28758728 -0.16179575 0 0 Z " fill="#5B659F" transform="translate(453,410)"/>
<path d="M0 0 C1.625 1 1.625 1 3 3 C2.65009645 5.8158905 1.84980278 8.2716858 1 11 C0.34 10.67 -0.32 10.34 -1 10 C-1.02689216 8.52093108 -1.04634621 7.04172517 -1.0625 5.5625 C-1.07410156 4.73878906 -1.08570313 3.91507812 -1.09765625 3.06640625 C-1 1 -1 1 0 0 Z " fill="#F5FBFD" transform="translate(723,390)"/>
<path d="M0 0 C-2 2 -2 2 -3.9453125 2.1953125 C-5.96354167 2.13020833 -7.98177083 2.06510417 -10 2 C-9.67 1.01 -9.34 0.02 -9 -1 C-5.23375329 -2.25541557 -3.62811066 -1.37061958 0 0 Z " fill="#E7ECFD" transform="translate(562,666)"/>
<path d="M0 0 C3.96 0 7.92 0 12 0 C11.67 0.66 11.34 1.32 11 2 C10.01 2.33 9.02 2.66 8 3 C7.67 4.65 7.34 6.3 7 8 C6.67 8 6.34 8 6 8 C6 6.02 6 4.04 6 2 C3.03 1.505 3.03 1.505 0 1 C0 0.67 0 0.34 0 0 Z " fill="#EEF9FC" transform="translate(264,472)"/>
<path d="M0 0 C3.63 0.33 7.26 0.66 11 1 C10.01 2.485 10.01 2.485 9 4 C6.03 3.67 3.06 3.34 0 3 C0 2.01 0 1.02 0 0 Z " fill="#455593" transform="translate(437,384)"/>
<path d="M0 0 C3 3 3 3 3.1875 6.1875 C3.0946875 7.5796875 3.0946875 7.5796875 3 9 C2.34 9 1.68 9 1 9 C1 11.64 1 14.28 1 17 C0.67 17 0.34 17 0 17 C0 11.39 0 5.78 0 0 Z " fill="#8992AC" transform="translate(696,309)"/>
<path d="M0 0 C-1.25535985 3.76607955 -2.52883585 4.26441793 -6 6 C-6.99 6 -7.98 6 -9 6 C-7.93344655 3.09121786 -7.32878952 2.16439476 -4.5 0.75 C-2 0 -2 0 0 0 Z " fill="#425899" transform="translate(336,473)"/>
<path d="M0 0 C0.33 0.66 0.66 1.32 1 2 C3.02463255 2.65213292 3.02463255 2.65213292 5 3 C2.6875 4.5625 2.6875 4.5625 0 6 C-0.99 5.67 -1.98 5.34 -3 5 C-3 3.68 -3 2.36 -3 1 C-2.01 0.67 -1.02 0.34 0 0 Z " fill="#4A588F" transform="translate(347,409)"/>
<path d="M0 0 C2.78211944 0.37596209 4.5879284 0.67318459 6.8125 2.4375 C8 4 8 4 8 6 C4 6 4 6 1.75 4.125 C0 2 0 2 0 0 Z " fill="#505E91" transform="translate(464,388)"/>
<path d="M0 0 C0.33 0.99 0.66 1.98 1 3 C1.66 3.33 2.32 3.66 3 4 C2.34 6.97 1.68 9.94 1 13 C-1.3638665 8.27226701 -1.25393971 6.16344069 -1 1 C-0.67 0.67 -0.34 0.34 0 0 Z " fill="#F2FAFB" transform="translate(305,384)"/>
<path d="M0 0 C2.22889496 -0.05428973 4.45817471 -0.09292338 6.6875 -0.125 C8.54955078 -0.15980469 8.54955078 -0.15980469 10.44921875 -0.1953125 C13.81237857 -0.01032021 15.9985587 0.54232105 19 2 C19 2.33 19 2.66 19 3 C13.25 3.125 13.25 3.125 11 2 C9.12943209 1.7724985 7.25314042 1.59037189 5.375 1.4375 C4.37210937 1.35371094 3.36921875 1.26992188 2.3359375 1.18359375 C1.56507813 1.12300781 0.79421875 1.06242188 0 1 C0 0.67 0 0.34 0 0 Z " fill="#8E96B8" transform="translate(445,671)"/>
<path d="M0 0 C1.98 0.99 3.96 1.98 6 3 C5.67 3.99 5.34 4.98 5 6 C3.35 6 1.7 6 0 6 C-1.125 2.25 -1.125 2.25 0 0 Z " fill="#EEF1FA" transform="translate(680,413)"/>
<path d="M0 0 C0 0.99 0 1.98 0 3 C-6.0546875 3.1953125 -6.0546875 3.1953125 -8 3 C-8.66 2.34 -9.32 1.68 -10 1 C-6.59437148 0.22157062 -3.49234244 -0.09978121 0 0 Z " fill="#3B498B" transform="translate(592,385)"/>
<path d="M0 0 C0.33 0 0.66 0 1 0 C1.33 3.63 1.66 7.26 2 11 C0.68 11 -0.64 11 -2 11 C-1.85892253 9.54119891 -1.71197585 8.08296449 -1.5625 6.625 C-1.48128906 5.81289063 -1.40007812 5.00078125 -1.31640625 4.1640625 C-1 2 -1 2 0 0 Z " fill="#F5FCFD" transform="translate(333,328)"/>
<path d="M0 0 C2.64 0 5.28 0 8 0 C8 0.99 8 1.98 8 3 C5.36 3 2.72 3 0 3 C0 2.01 0 1.02 0 0 Z " fill="#F5FDFB" transform="translate(336,580)"/>
<path d="M0 0 C0.66 0.99 1.32 1.98 2 3 C0.8125 4.5 0.8125 4.5 -1 6 C-3.6875 6.1875 -3.6875 6.1875 -6 6 C-4 4 -2 2 0 0 Z " fill="#576397" transform="translate(358,393)"/>
<path d="M0 0 C3.91402949 1.26941497 5.79072873 2.51167694 8 6 C4.62537285 5.45276317 2.91765 4.9451 0 3 C0 2.01 0 1.02 0 0 Z " fill="#435667" transform="translate(358,567)"/>
<path d="M0 0 C5.94 1.485 5.94 1.485 12 3 C12 3.33 12 3.66 12 4 C10.56260487 4.02712066 9.12506137 4.04645067 7.6875 4.0625 C6.48673828 4.07990234 6.48673828 4.07990234 5.26171875 4.09765625 C3 4 3 4 0 3 C0 2.01 0 1.02 0 0 Z " fill="#DFE7F6" transform="translate(446,412)"/>
<path d="M0 0 C0.33 0.99 0.66 1.98 1 3 C-0.1875 4.5 -0.1875 4.5 -2 6 C-4.6875 6.1875 -4.6875 6.1875 -7 6 C-4.74259377 3.66475218 -2.7194239 1.81294927 0 0 Z " fill="#DAE9F2" transform="translate(369,580)"/>
<path d="M0 0 C0.99 0.33 1.98 0.66 3 1 C3 2.32 3 3.64 3 5 C1.35 5 -0.3 5 -2 5 C-2.33 4.01 -2.66 3.02 -3 2 C-2.01 2 -1.02 2 0 2 C0 1.34 0 0.68 0 0 Z " fill="#F5FAF8" transform="translate(493,539)"/>
<path d="M0 0 C0.625 1.8125 0.625 1.8125 1 4 C0.01 5.485 0.01 5.485 -1 7 C-2.32 6.67 -3.64 6.34 -5 6 C-3.625 4 -3.625 4 -2 2 C-1.34 2 -0.68 2 0 2 C0 1.34 0 0.68 0 0 Z " fill="#EEF8FC" transform="translate(318,358)"/>
<path d="M0 0 C3 1 3 1 5 2 C4.67 2.99 4.34 3.98 4 5 C2.35 5 0.7 5 -1 5 C-0.67 3.35 -0.34 1.7 0 0 Z " fill="#F4F7F9" transform="translate(459,664)"/>
<path d="M0 0 C4.51720311 -0.36625971 4.51720311 -0.36625971 6.8125 1.375 C8 3 8 3 8 5 C7.01 5 6.02 5 5 5 C5 4.34 5 3.68 5 3 C3.35 2.67 1.7 2.34 0 2 C0 1.34 0 0.68 0 0 Z " fill="#3B4F93" transform="translate(459,388)"/>
<path d="M0 0 C1.32 0.33 2.64 0.66 4 1 C2.35 2.65 0.7 4.3 -1 6 C-1.33 4.68 -1.66 3.36 -2 2 C-1.34 2 -0.68 2 0 2 C0 1.34 0 0.68 0 0 Z " fill="#4C6B85" transform="translate(366,578)"/>
<path d="M0 0 C0.99 0 1.98 0 3 0 C3.33 1.32 3.66 2.64 4 4 C1.69 4 -0.62 4 -3 4 C-3 3.01 -3 2.02 -3 1 C-2.01 1.33 -1.02 1.66 0 2 C0 1.34 0 0.68 0 0 Z " fill="#F9FCFA" transform="translate(364,384)"/>
<path d="M0 0 C2.31 0 4.62 0 7 0 C6.67 0.66 6.34 1.32 6 2 C5.01 2.33 4.02 2.66 3 3 C2.67 3.66 2.34 4.32 2 5 C1.34 5 0.68 5 0 5 C0 3.35 0 1.7 0 0 Z " fill="#F6FBFD" transform="translate(462,674)"/>
<path d="M0 0 C-0.33 0.99 -0.66 1.98 -1 3 C-3.64 2.67 -6.28 2.34 -9 2 C-5.86501708 0.14223235 -3.62528568 -0.20140476 0 0 Z " fill="#F3FAFE" transform="translate(454,668)"/>
<path d="M0 0 C0.33 0.99 0.66 1.98 1 3 C-3.29 2.67 -7.58 2.34 -12 2 C-12 1.67 -12 1.34 -12 1 C-10.37512529 0.83211627 -8.75009558 0.66573213 -7.125 0.5 C-6.22007812 0.4071875 -5.31515625 0.314375 -4.3828125 0.21875 C-2 0 -2 0 0 0 Z " fill="#C8CFEE" transform="translate(567,667)"/>
<path d="M0 0 C1.32 0.33 2.64 0.66 4 1 C3.67 2.32 3.34 3.64 3 5 C2.01 5 1.02 5 0 5 C0 3.35 0 1.7 0 0 Z " fill="#FAFEF1" transform="translate(496,601)"/>
<path d="M0 0 C1.32 0.33 2.64 0.66 4 1 C4 2.65 4 4.3 4 6 C2.68 5.67 1.36 5.34 0 5 C0 3.35 0 1.7 0 0 Z " fill="#F8FBF9" transform="translate(362,586)"/>
<path d="M0 0 C4.875 1.75 4.875 1.75 6 4 C3.69 4 1.38 4 -1 4 C-0.67 2.68 -0.34 1.36 0 0 Z " fill="#DEF2FB" transform="translate(360,572)"/>
<path d="M0 0 C2.31 0 4.62 0 7 0 C7 0.66 7 1.32 7 2 C4.36 2.33 1.72 2.66 -1 3 C-0.67 2.01 -0.34 1.02 0 0 Z " fill="#224A85" transform="translate(329,468)"/>
<path d="M0 0 C2.64 0 5.28 0 8 0 C8 0.33 8 0.66 8 1 C6.906875 1.28875 5.81375 1.5775 4.6875 1.875 C0.95986155 2.81893204 0.95986155 2.81893204 -2 5 C-1.34 3.35 -0.68 1.7 0 0 Z " fill="#F6F7F8" transform="translate(278,440)"/>
<path d="M0 0 C0.66 0.66 1.32 1.32 2 2 C-4.0546875 2.9765625 -4.0546875 2.9765625 -6 3 C-6.66 2.34 -7.32 1.68 -8 1 C-5.23749964 -0.38125018 -3.05268901 -0.19079306 0 0 Z " fill="#415192" transform="translate(430,404)"/>
<path d="M0 0 C1.65 0 3.3 0 5 0 C5 0.99 5 1.98 5 3 C3.35 3.33 1.7 3.66 0 4 C0 2.68 0 1.36 0 0 Z " fill="#384A90" transform="translate(432,384)"/>
<path d="M0 0 C0.66 0 1.32 0 2 0 C1.67 3.63 1.34 7.26 1 11 C-1 9 -1 9 -1.23046875 7.08984375 C-1.11111111 1.11111111 -1.11111111 1.11111111 0 0 Z " fill="#677494" transform="translate(328,331)"/>
<path d="M0 0 C0 1.98 0 3.96 0 6 C-0.99 6.495 -0.99 6.495 -2 7 C-2 5.35 -2 3.7 -2 2 C-3.32 1.34 -4.64 0.68 -6 0 C-3 -1 -3 -1 0 0 Z " fill="#F2FBFC" transform="translate(376,573)"/>
<path d="M0 0 C0.53625 0.226875 1.0725 0.45375 1.625 0.6875 C0.635 0.6875 -0.355 0.6875 -1.375 0.6875 C-1.375 1.3475 -1.375 2.0075 -1.375 2.6875 C-3.025 3.3475 -4.675 4.0075 -6.375 4.6875 C-7.035 4.0275 -7.695 3.3675 -8.375 2.6875 C-2.95961538 -0.38942308 -2.95961538 -0.38942308 0 0 Z " fill="#D2DEED" transform="translate(358.375,409.3125)"/>
<path d="M0 0 C3.625 -0.1875 3.625 -0.1875 7 0 C6.01 1.485 6.01 1.485 5 3 C1.375 3.1875 1.375 3.1875 -2 3 C-1.34 2.01 -0.68 1.02 0 0 Z " fill="#374790" transform="translate(603,403)"/>
</svg>
